<svg width="220" height="220" class="chart-svg"><circle cx="100" cy="100" r="83" fill="#f8fafc" stroke="#cbd5e1" stroke-width="1" opacity="0.5"/><path d="M 100,100 L 180,100 A 80,80 0 0,1 71.631609036597,174.80129941483 Z" fill="#27ae60" stroke="#ffffff" stroke-width="2" class="chart-segment"/><path d="M 100,100 L 71.631609036597,174.80129941483 A 80,80 0 0,1 71.631609036597,25.198700585167 Z" fill="#3498db" stroke="#ffffff" stroke-width="2" class="chart-segment"/><path d="M 100,100 L 71.631609036597,25.198700585167 A 80,80 0 0,1 161.6762539836,49.048653653209 Z" fill="#f39c12" stroke="#ffffff" stroke-width="2" class="chart-segment"/><path d="M 100,100 L 161.6762539836,49.048653653209 A 80,80 0 0,1 178.28988202368,83.547207753125 Z" fill="#e67e22" stroke="#ffffff" stroke-width="2" class="chart-segment"/><path d="M 100,100 L 178.28988202368,83.547207753125 A 80,80 0 0,1 180,100 Z" fill="#e74c3c" stroke="#ffffff" stroke-width="2" class="chart-segment"/><circle cx="100" cy="100" r="18" fill="#f8fafc" stroke="#475569" stroke-width="2" class="chart-center"/></svg>