<svg width="220" height="220" class="chart-svg"><circle cx="100" cy="100" r="83" fill="#f8fafc" stroke="#cbd5e1" stroke-width="1" opacity="0.5"/><path d="M 100,100 L 180,100 A 80,80 0 0,1 75.278640450004,176.08452130361 Z" fill="#27ae60" stroke="#ffffff" stroke-width="2" class="chart-segment"/><path d="M 100,100 L 75.278640450004,176.08452130361 A 80,80 0 0,1 75.278640450004,23.915478696388 Z" fill="#3498db" stroke="#ffffff" stroke-width="2" class="chart-segment"/><path d="M 100,100 L 75.278640450004,23.915478696388 A 80,80 0 0,1 164.72135955,52.977179816602 Z" fill="#f39c12" stroke="#ffffff" stroke-width="2" class="chart-segment"/><path d="M 100,100 L 164.72135955,52.977179816602 A 80,80 0 0,1 177.48665289029,80.104809026812 Z" fill="#e67e22" stroke="#ffffff" stroke-width="2" class="chart-segment"/><path d="M 100,100 L 177.48665289029,80.104809026812 A 80,80 0 0,1 180,100 Z" fill="#e74c3c" stroke="#ffffff" stroke-width="2" class="chart-segment"/><circle cx="100" cy="100" r="18" fill="#f8fafc" stroke="#475569" stroke-width="2" class="chart-center"/></svg>